<svg width="110" height="147" viewBox="0 0 110 147" fill="none" xmlns="http://www.w3.org/2000/svg">
<path fill-rule="evenodd" clip-rule="evenodd" d="M44.2265 0.355504C43.2469 0.595119 41.2209 1.439 39.7232 2.23014C36.9016 3.72148 35.2374 5.91166 35.2236 8.15094C35.2094 10.5625 34.6495 11.2482 30.9391 13.3988C26.5803 15.925 19.8672 22.2582 16.8997 26.6431C14.8787 29.6303 11.6829 36.0126 11.1551 38.1164C10.8863 39.1881 10.586 39.3336 8.11836 39.5896C3.77973 40.0393 2.71766 40.9704 1.46482 45.424C0.350017 49.3874 0.102388 60.7548 1.03055 65.3566C2.37236 72.0085 3.54586 73.3557 8.43478 73.8559C11.8273 74.2032 14.377 73.0893 15.3524 70.8327C16.5599 68.0415 17.3133 62.6113 17.3133 56.7059C17.3133 49.9098 16.4705 44.772 14.8003 41.3874L13.5718 38.8976L14.8196 35.9867C17.3078 30.1814 21.3057 24.5034 25.5733 20.7132C27.9703 18.5844 33.8699 14.4209 34.489 14.4209C34.6444 14.4209 34.7715 15.0043 34.7715 15.7177C34.7715 18.9072 38.336 21.6026 44.1723 22.8261C47.974 23.6227 60.5638 23.7477 65.0074 23.033C71.1121 22.0509 75.1265 19.2401 75.1265 15.9477C75.1265 13.9599 75.3191 14.0104 80.0071 17.2236C86.3241 21.5535 92.2108 28.8278 95.1187 35.8976L96.3779 38.9599L95.1412 41.3833C93.4275 44.742 92.8643 48.4958 92.8423 56.7059C92.8217 64.4777 93.3582 68.0365 95.0788 71.5284C95.707 72.8033 96.2211 74.0787 96.2211 74.3619C96.2211 75.3713 92.6337 82.4493 90.5448 85.5611C88.5495 88.5329 88.4372 88.8602 88.711 90.9035L89.0022 93.0801H55.2374H21.4727V91.716C21.4727 90.5034 21.3199 90.352 20.0969 90.352C18.8808 90.352 18.7212 90.5066 18.7212 91.6874C18.7212 92.8614 18.5414 93.0396 17.2308 93.1651C15.7404 93.3074 15.7404 93.3074 15.6037 96.1491L15.4676 98.9909H12.0498H8.63242V97.3759V95.7604L6.22488 95.8982C3.90539 96.0305 3.8123 96.0868 3.67931 97.4386C3.56145 98.6376 3.29456 98.9022 1.84499 99.2573C0.314711 99.632 0.134949 99.8361 0.00883951 101.337C-0.0704947 102.279 0.392211 104.548 1.07412 106.566C6.27808 121.958 16.9029 134.256 30.8735 141.059C40.3643 145.681 49.9564 147.41 60.3689 146.378C67.3393 145.687 72.7162 144.158 79.0863 141.054C92.8602 134.344 103.175 122.58 108.567 107.431C110.776 101.226 110.466 98.9909 107.398 98.9909C106.571 98.9909 106.34 98.6994 106.224 97.5132C106.084 96.0723 106.021 96.0318 103.673 95.8982L101.265 95.7604V97.3759V98.9909H97.8481H94.4304L94.2942 96.1491C94.1575 93.3074 94.1575 93.3074 92.6671 93.1651C91.2524 93.0296 91.1767 92.9282 91.1767 91.1645C91.1767 89.7218 91.6734 88.5333 93.3963 85.8507C95.708 82.251 97.5624 78.5604 98.4727 75.7455C98.9923 74.1396 99.0785 74.0891 101.855 73.7831C106.59 73.2612 107.561 72.1549 108.859 65.8031C109.474 62.7958 109.586 60.487 109.397 54.6958C109.02 43.1106 107.642 40.2316 102.183 39.6196C99.4899 39.3172 99.2679 39.2036 98.7951 37.8845C97.6597 34.7168 93.7925 27.5179 91.8518 24.9576C88.8086 20.9442 83.1204 15.86 78.918 13.3984L75.2324 11.2387L74.9201 8.76066C74.4812 5.28057 73.1587 3.57871 69.4249 1.68998L66.2786 0.0986104L56.1427 0.00903962C50.5677 -0.0400655 45.2055 0.115889 44.2265 0.355504ZM59.5348 4.1907V6.23675H54.949H50.3632V4.49397C50.3632 3.53506 50.5007 2.61434 50.669 2.44793C50.8369 2.28106 52.9005 2.14466 55.2548 2.14466H59.5348V4.1907ZM47.9831 4.30437L47.841 6.00941L43.2827 6.14081C38.735 6.27131 38.7263 6.26949 39.5632 5.35331C40.6161 4.19934 44.6025 2.65435 46.6074 2.62298C48.0849 2.59979 48.1216 2.64526 47.9831 4.30437ZM66.9711 3.36319C68.1606 3.78604 69.7083 4.5981 70.4104 5.16781L71.6871 6.20401L66.9867 6.22038L62.2862 6.23675V4.41804C62.2862 2.73756 62.3821 2.59934 63.5473 2.59706C64.2411 2.5957 65.7815 2.9408 66.9711 3.36319ZM48.0703 10.984C48.0703 12.0948 47.8988 13.1083 47.6897 13.2365C47.1907 13.542 43.174 12.4831 41.4199 11.5828C40.6624 11.1946 39.6503 10.4466 39.1706 9.92054L38.2979 8.96481H43.1841H48.0703V10.984ZM59.5348 11.2382V13.5116H54.949H50.3632V11.2382V8.96481H54.949H59.5348V11.2382ZM71.4578 9.42949C71.4578 10.1752 67.4599 12.4786 65.5976 12.8055C64.6594 12.9705 63.5299 13.2106 63.0887 13.3393C62.399 13.5402 62.2862 13.2492 62.2862 11.2687V8.96481H66.872C69.6895 8.96481 71.4578 9.14396 71.4578 9.42949ZM39.1358 13.2601C41.7038 14.9884 45.494 15.8623 51.5096 16.1146C59.9108 16.467 65.9154 15.7186 69.7235 13.8444L72.8336 12.3135V14.4569C72.8336 16.3279 72.6341 16.7739 71.2634 17.967C68.8164 20.0971 64.8391 20.7864 54.9957 20.7864C44.2654 20.7864 39.7237 19.8016 37.7825 17.054C37.1478 16.1555 36.7319 12.1476 37.2735 12.1476C37.3881 12.1476 38.2264 12.6482 39.1358 13.2601ZM26.9219 25.2268C23.2501 29.0561 22.1147 30.7861 22.5439 31.8955C23.0538 33.2127 24.1576 32.6248 26.2593 29.9168C27.408 28.4364 29.4093 26.3048 30.7062 25.18C33.2109 23.0075 33.4746 21.6958 31.4073 21.6958C30.6314 21.6958 29.3098 22.7361 26.9219 25.2268ZM50.3976 30.3442C40.3914 32.4384 32.7124 38.9453 29.7179 47.867L28.7352 50.7951H26.2501H23.7655V56.7059V62.6167H26.2699H28.7746L29.2928 64.5491C30.2508 68.1206 32.6239 71.8635 36.1426 75.3522C44.7992 83.9352 56.1064 85.7661 67.1421 80.3718C73.6209 77.2055 79.0202 70.6781 80.816 63.8416C81.1921 62.4116 81.6342 61.0253 81.7988 60.7612C81.9639 60.4965 83.0576 60.3392 84.2302 60.4115L86.3617 60.5425L86.4942 56.5781L86.6267 52.6138H84.0953C81.7039 52.6138 81.5493 52.5447 81.2985 51.3634C80.8055 49.0437 78.7763 44.1236 77.4707 42.0826C74.3533 37.2089 68.7531 33.0295 62.9741 31.2645C59.3238 30.1491 53.3999 29.7158 50.3976 30.3442ZM19.3215 36.0799C18.9422 37.0602 19.7571 38.2915 20.7848 38.2915C21.2342 38.2915 21.812 37.9614 22.0688 37.5576C22.7695 36.4564 22.122 35.3361 20.7848 35.3361C20.1198 35.3361 19.4847 35.6589 19.3215 36.0799ZM61.7015 38.1333C68.6985 40.7072 73.3412 46.2461 74.7202 53.6655C76.2344 61.8156 71.6848 70.423 63.7665 74.386C51.9664 80.2918 37.4358 72.8497 35.208 59.7586C33.5241 49.863 40.0662 40.2761 50.4847 37.373C53.5475 36.5196 58.1654 36.8324 61.7015 38.1333ZM13.3095 44.3405C15.2323 50.2922 15.2323 62.9568 13.3099 68.6998L12.5304 71.0282L10.2916 71.1692C8.14267 71.3047 8.06516 71.2678 8.3637 70.2598C8.53521 69.6824 8.99607 67.3681 9.38862 65.1174C10.2622 60.1064 9.99165 49.2306 8.89289 45.203C8.4976 43.7531 8.17384 42.4891 8.17384 42.3949C8.17384 42.0744 9.77245 41.7866 11.1546 41.858C12.3932 41.9216 12.6079 42.169 13.3095 44.3405ZM101.638 42.374C101.736 42.4709 101.597 43.2288 101.329 44.0582C99.7118 49.0737 99.5435 61.8901 101.016 67.8455C101.388 69.3459 101.699 70.7054 101.708 70.8668C101.717 71.0282 100.875 71.2406 99.8365 71.3383C98.2953 71.4843 97.8307 71.3379 97.3038 70.5408C96.0868 68.6994 95.32 63.4488 95.3118 56.9032C95.3035 50.2736 95.7887 46.4288 97.0177 43.383C97.722 41.6379 97.767 41.6124 99.5976 41.9025C100.622 42.0648 101.54 42.2772 101.638 42.374ZM6.28037 45.2444C6.51379 46.1715 6.81599 47.6978 6.95173 48.6354L7.1989 50.3404H5.16419C4.04526 50.3404 3.13269 50.1867 3.13636 49.9994C3.1492 49.3465 4.52263 43.8599 4.77394 43.4566C5.2128 42.7528 5.84059 43.498 6.28037 45.2444ZM106.045 46.6839C106.443 48.4185 106.768 49.9508 106.768 50.089C106.768 50.2272 105.845 50.3404 104.716 50.3404H102.664L102.924 48.8627C103.383 46.2515 104.54 43.0515 104.936 43.2943C105.148 43.4243 105.647 44.9493 106.045 46.6839ZM83.5506 48.6354C83.7023 49.1983 83.8298 50.0299 83.8331 50.4841C83.8381 51.1161 84.1362 51.2761 85.1006 51.1661C86.1956 51.0415 86.3805 50.7978 86.5038 49.3174C86.6446 47.6306 86.6281 47.6124 84.9602 47.6124C83.4354 47.6124 83.3002 47.7101 83.5506 48.6354ZM7.49698 54.5748C7.66023 55.6538 7.71572 57.3415 7.61988 58.3259C7.44699 60.1083 7.43691 60.1164 5.288 60.2547L3.12947 60.3933V56.5036V52.6138H5.1651H7.20029L7.49698 54.5748ZM106.979 54.6976C107.153 55.8438 107.158 57.583 106.991 58.5623C106.692 60.3192 106.661 60.3433 104.664 60.3433H102.641V56.4786V52.6138H104.653H106.664L106.979 54.6976ZM83.8395 63.2614C83.8395 63.8662 83.7143 64.6846 83.5611 65.0801C83.3392 65.6539 83.6171 65.7994 84.9369 65.7994C86.5607 65.7994 86.5909 65.7663 86.5909 63.9807C86.5909 62.263 86.5144 62.162 85.2152 62.162C84.066 62.162 83.8395 62.343 83.8395 63.2614ZM6.90312 64.4895C6.72382 66.7097 5.82592 69.8915 5.3788 69.8915C5.16831 69.8915 4.80054 69.5287 4.56116 69.0858C4.0824 68.1988 3.12901 63.4401 3.35693 63.0741C3.43534 62.9473 4.29334 62.8686 5.2637 62.8982C6.97695 62.9509 7.02373 62.9964 6.90312 64.4895ZM106.524 64.5273C106.015 67.5127 105.205 69.9597 104.73 69.9516C103.993 69.9388 102.788 64.9101 103.053 62.9577C103.079 62.7704 103.944 62.6167 104.974 62.6167H106.849L106.524 64.5273ZM84.0688 74.7984C81.9442 75.244 80.8523 77.27 81.5966 79.3861C81.8566 80.1259 82.3642 80.8433 82.7251 80.9802C83.2135 81.1662 83.3809 82.1042 83.3809 84.6544V88.0786H84.7566H86.1324V84.6544C86.1324 82.1287 86.302 81.1653 86.7781 80.9843C87.1335 80.8493 87.6585 80.1768 87.9456 79.4907C89.009 76.944 86.7689 74.2323 84.0688 74.7984ZM21.889 75.1885C21.2525 75.3613 21.297 75.6573 22.233 77.4901C23.3863 79.7494 23.6725 83.4286 22.8599 85.5483C22.4403 86.6418 22.4994 86.7146 23.8068 86.7146C25.6852 86.7146 26.8284 86.0426 27.6589 84.4503C29.0039 81.8714 28.3376 78.0475 26.2199 76.1929C25.3013 75.3881 23.0635 74.8693 21.889 75.1885ZM12.3011 77.0263C9.74356 79.0196 9.37532 79.6316 10.0178 80.8215C10.2966 81.3385 10.5341 82.6198 10.5452 83.6696C10.5695 85.9198 10.9969 86.5418 13.1233 87.423C16.4145 88.7866 19.0784 87.729 20.1024 84.6522C21.4396 80.6351 18.5487 75.2299 15.1456 75.3827C14.7159 75.4022 13.436 76.1415 12.3011 77.0263ZM16.0921 79.7808C17.3184 81.1298 17.4972 82.7903 16.5425 83.9593C15.4575 85.2883 13.9909 84.9263 13.2467 83.1458C12.4707 81.288 13.3865 79.2461 15.0961 79.021C15.2461 79.0014 15.6945 79.3429 16.0921 79.7808ZM92.0939 97.3995V98.9909H54.949H17.804V97.3995V95.8081H54.949H92.0939V97.3995ZM12.6941 105.47C16.918 116.535 25.7017 126.483 35.4336 131.224C46.8486 136.785 60.0584 137.257 71.815 132.526C82.8187 128.099 92.5236 117.892 97.1383 105.893L98.7433 101.72L103.166 101.719L107.589 101.719L107.224 103.197C103.807 117.034 92.901 130.785 79.6118 138.011C69.9674 143.255 57.2652 145.227 45.7434 143.269C26.905 140.068 10.2209 125.45 3.81688 106.535C2.1105 101.495 1.96468 101.719 6.96641 101.719H11.2619L12.6941 105.47ZM84.0481 103.197C79.7774 107.912 78.0673 109.448 77.091 109.448C75.7061 109.448 74.2093 110.983 74.2093 112.404C74.2093 114.853 77.4868 116.263 79.3321 114.607C79.7934 114.193 80.1708 113.256 80.1708 112.525C80.1708 111.473 81.0981 110.207 84.6149 106.457L89.059 101.719H92.4415C96.3619 101.719 96.2665 101.305 93.7104 107.23C90.5893 114.464 84.9043 121.45 78.6759 125.704C71.3303 130.722 65.6816 132.612 56.9754 132.963C50.1183 133.24 45.5916 132.548 40.0992 130.385C33.0798 127.62 26.4226 122.628 21.8377 116.69C19.5572 113.736 15.2603 105.701 14.3784 102.742L14.0735 101.719H49.7303H85.3867L84.0481 103.197ZM47.4672 108.092C43.3625 109.313 41.4539 112.744 41.7148 118.432C41.8579 121.555 42.0523 122.248 43.2057 123.747C45.5297 126.768 47.4723 127.283 55.8657 127.106C55.8657 127.106 61.6822 126.984 62.665 126.855C63.6479 126.726 64.8818 125.557 64.8818 125.557C67.4695 123.505 68.2482 121.667 68.2368 117.633C68.2225 112.29 66.7014 109.696 62.7792 108.324C60.5904 107.558 49.8092 107.395 47.4672 108.092ZM59.9933 111.749V113.541H57.9297H55.8661V111.749C55.8661 110.009 55.9147 109.954 57.5858 109.81C59.8998 109.611 59.9933 109.687 59.9933 111.749ZM48.0703 111.722V113.541H46.2359C44.3003 113.541 44.0815 113.298 44.9895 112.156C45.4885 111.528 47.6186 109.903 47.9432 109.903C48.0129 109.903 48.0703 110.722 48.0703 111.722ZM54.0318 111.722V113.541H51.9682H49.9046V111.722V109.903H51.9682H54.0318V111.722ZM64.3705 111.474C65.9503 113.04 65.7788 113.541 63.662 113.541C61.8712 113.541 61.8276 113.503 61.8276 111.949C61.8276 110.014 62.7288 109.846 64.3705 111.474ZM48.0703 117.405V119.451H45.7774H43.4845V117.405V115.359H45.7774H48.0703V117.405ZM54.0318 117.405V119.451H51.9682H49.9046V117.405V115.359H51.9682H54.0318V117.405ZM59.9933 117.405V119.451H57.9297H55.8661V117.405V115.359H57.9297H59.9933V117.405ZM66.4134 117.43V119.501L64.2352 119.363L62.0569 119.224L61.9162 117.292L61.7749 115.359H64.0944H66.4134V117.43ZM48.0703 123.101V124.931L46.7083 124.232C45.5183 123.623 44.4016 122.313 44.4016 121.527C44.4016 121.386 45.2271 121.27 46.2359 121.27H48.0703V123.101ZM54.0318 123.342V125.414L52.0828 125.274C50.1435 125.135 50.1334 125.125 49.9931 123.202L49.8519 121.27H51.9421H54.0318V123.342ZM59.9933 123.342V125.414L58.0444 125.274C56.105 125.135 56.0949 125.125 55.9546 123.202L55.8134 121.27H57.9036H59.9933V123.342ZM65.6843 121.838C64.9244 123.169 63.4418 124.453 62.665 124.453C62.0138 124.453 61.8276 124.099 61.8276 122.861C61.8276 121.276 61.8345 121.27 63.9183 121.27C65.4582 121.27 65.9237 121.42 65.6843 121.838Z" fill="white"/>
<path d="M35.5854 110.329C35.5854 111.923 34.2919 113.214 32.6963 113.214C31.1007 113.214 29.8073 111.923 29.8073 110.329C29.8073 108.736 31.1007 107.444 32.6963 107.444C34.2919 107.444 35.5854 108.736 35.5854 110.329Z" fill="white"/>
<ellipse cx="54.7998" cy="80.2505" rx="1.60503" ry="1.59137" fill="#032121"/>
<ellipse cx="71.7679" cy="72.9754" rx="1.60503" ry="1.59137" fill="#032121"/>
<ellipse cx="38.2919" cy="72.9754" rx="1.60503" ry="1.59137" fill="#032121"/>
<ellipse cx="27.2858" cy="56.607" rx="1.60503" ry="1.59137" fill="#032121"/>
<ellipse cx="38.2919" cy="40.2392" rx="1.60503" ry="1.59137" fill="#032121"/>
<ellipse cx="54.7998" cy="33.419" rx="1.60503" ry="1.59137" fill="#032121"/>
<ellipse cx="71.7679" cy="40.2392" rx="1.60503" ry="1.59137" fill="#032121"/>
<path d="M14.6747 115.488C14.6747 116.492 13.8534 117.307 12.8404 117.307C11.8273 117.307 11.0061 116.492 11.0061 115.488C11.0061 114.483 11.8273 113.669 12.8404 113.669C13.8534 113.669 14.6747 114.483 14.6747 115.488Z" fill="white"/>
<path d="M31.1838 132.766C31.1838 133.77 30.3626 134.585 29.3495 134.585C28.3364 134.585 27.5152 133.77 27.5152 132.766C27.5152 131.761 28.3364 130.947 29.3495 130.947C30.3626 130.947 31.1838 131.761 31.1838 132.766Z" fill="white"/>
<path d="M56.8634 140.04C56.8634 141.045 56.0422 141.859 55.0291 141.859C54.0161 141.859 53.1948 141.045 53.1948 140.04C53.1948 139.036 54.0161 138.222 55.0291 138.222C56.0422 138.222 56.8634 139.036 56.8634 140.04Z" fill="white"/>
<path d="M82.5443 132.766C82.5443 133.77 81.7231 134.585 80.71 134.585C79.697 134.585 78.8757 133.77 78.8757 132.766C78.8757 131.761 79.697 130.947 80.71 130.947C81.7231 130.947 82.5443 131.761 82.5443 132.766Z" fill="white"/>
<path d="M99.0534 115.488C99.0534 116.492 98.2321 117.307 97.2191 117.307C96.206 117.307 95.3848 116.492 95.3848 115.488C95.3848 114.483 96.206 113.669 97.2191 113.669C98.2321 113.669 99.0534 114.483 99.0534 115.488Z" fill="white"/>
<path d="M48.1507 61.3812V52.2876L55.0294 49.1049L61.9081 52.2876V61.3812L55.0294 64.5639L48.1507 61.3812Z" fill="#D35400"/>
</svg>
